<svg xmlns="http://www.w3.org/2000/svg" viewBox="0 0 64 64" width="64" height="64" role="img">
  <title>ELVES Surveys icon mark, dark mode</title>
  <desc>ELVES Surveys Local Volume scatter icon with spiral galaxy, dark mode.</desc>
  <rect width="64" height="64" fill="#0e1520" rx="8"/>
  <g transform="translate(32,32)">
    <circle cx="0" cy="0" r="29" fill="none" stroke="#2e4f72" stroke-width="2.2" stroke-dasharray="2.5 3"/>
    <g transform="rotate(-30)" stroke="#9abce0">
      <path d="M 0.22,0.00 C 0.23,0.05 0.23,0.11 0.22,0.18 C 0.19,0.24 0.14,0.30 0.08,0.35 C -0.00,0.38 -0.10,0.40 -0.20,0.40 C -0.31,0.38 -0.42,0.32 -0.52,0.24 C -0.60,0.13 -0.67,-0.01 -0.70,-0.17 C -0.70,-0.35 -0.65,-0.54 -0.56,-0.73 C -0.41,-0.90 -0.21,-1.05 0.03,-1.16 C 0.31,-1.22 0.62,-1.21 0.95,-1.12 C 1.27,-0.95 1.57,-0.70 1.83,-0.36 C 2.01,0.06 2.11,0.56 2.09,1.10 C 1.94,1.66 1.64,2.22 1.19,2.74 C 0.60,3.18 -0.14,3.50 -1.00,3.65 C -1.93,3.61 -2.91,3.34 -3.88,2.82" fill="none" stroke-width="1.2" stroke-linecap="round"/>
      <path d="M -0.22,0.00 C -0.23,-0.05 -0.23,-0.11 -0.22,-0.18 C -0.19,-0.24 -0.14,-0.30 -0.08,-0.35 C 0.00,-0.38 0.10,-0.40 0.20,-0.40 C 0.31,-0.38 0.42,-0.32 0.52,-0.24 C 0.60,-0.13 0.67,0.01 0.70,0.17 C 0.70,0.35 0.65,0.54 0.56,0.73 C 0.41,0.90 0.21,1.05 -0.03,1.16 C -0.31,1.22 -0.62,1.21 -0.95,1.12 C -1.27,0.95 -1.57,0.70 -1.83,0.36 C -2.01,-0.06 -2.11,-0.56 -2.09,-1.10 C -1.94,-1.66 -1.64,-2.22 -1.19,-2.74 C -0.60,-3.18 0.14,-3.50 1.00,-3.65 C 1.93,-3.61 2.91,-3.34 3.88,-2.82" fill="none" stroke="#6a8fc0" stroke-width="1.2" stroke-linecap="round"/>
      <ellipse cx="0" cy="0" rx="1.1" ry="0.7" fill="#9abce0" stroke="none"/>
    </g>
    <circle cx="-13" cy="-6"  r="3.4" fill="#6a8fc0"/>
    <circle cx="5"   cy="-11" r="2.2" fill="#6a8fc0"/>
    <circle cx="-7"  cy="9"   r="2.0" fill="#6a8fc0"/>
    <circle cx="12"  cy="5"   r="1.7" fill="#4a6888"/>
    <circle cx="4"   cy="14"  r="1.5" fill="#4a6888"/>
    <circle cx="-17" cy="4"   r="1.8" fill="#6a8fc0"/>
    <circle cx="-19" cy="-11" r="1.6" fill="#6a8fc0"/>
    <circle cx="-9"  cy="-15" r="1.3" fill="#4a6888"/>
    <circle cx="-21" cy="-4"  r="1.2" fill="#4a6888"/>
    <circle cx="22"  cy="-12" r="1.3" fill="#4a6888"/>
    <circle cx="25"  cy="9"   r="1.1" fill="#4a6888"/>
    <circle cx="-25" cy="13"  r="1.2" fill="#4a6888"/>
    <circle cx="13"  cy="-22" r="1.0" fill="#4a6888"/>
    <circle cx="-11" cy="24"  r="1.0" fill="#4a6888"/>
    <circle cx="27"  cy="-3"  r="0.85" fill="#4a6888"/>
    <circle cx="-27" cy="-7"  r="0.85" fill="#4a6888"/>
    <circle cx="18"  cy="22"  r="0.8" fill="#4a6888"/>
    <circle cx="-22" cy="22"  r="0.8" fill="#4a6888"/>
  </g>
</svg>
