<svg xmlns="http://www.w3.org/2000/svg" viewBox="0 0 32 32" width="32" height="32" role="img">
  <title>ELVES Surveys favicon</title>
  <desc>ELVES Surveys simplified favicon with spiral galaxy mark.</desc>
  <g transform="translate(16,16)">
    <circle cx="0" cy="0" r="13.5" fill="none" stroke="#7aaad0" stroke-width="2.2" stroke-dasharray="2.5 2.5"/>
    <!-- spiral galaxy: arms slightly thicker for legibility at tiny size -->
    <g transform="rotate(-30)" stroke="#1a2540">
      <path d="M 0.22,0.00 C 0.23,0.05 0.23,0.11 0.22,0.18 C 0.19,0.24 0.14,0.30 0.08,0.35 C -0.00,0.38 -0.10,0.40 -0.20,0.40 C -0.31,0.38 -0.42,0.32 -0.52,0.24 C -0.60,0.13 -0.67,-0.01 -0.70,-0.17 C -0.70,-0.35 -0.65,-0.54 -0.56,-0.73 C -0.41,-0.90 -0.21,-1.05 0.03,-1.16 C 0.31,-1.22 0.62,-1.21 0.95,-1.12 C 1.27,-0.95 1.57,-0.70 1.83,-0.36 C 2.01,0.06 2.11,0.56 2.09,1.10 C 1.94,1.66 1.64,2.22 1.19,2.74 C 0.60,3.18 -0.14,3.50 -1.00,3.65 C -1.93,3.61 -2.91,3.34 -3.88,2.82" fill="none" stroke-width="1.4" stroke-linecap="round"/>
      <path d="M -0.22,0.00 C -0.23,-0.05 -0.23,-0.11 -0.22,-0.18 C -0.19,-0.24 -0.14,-0.30 -0.08,-0.35 C 0.00,-0.38 0.10,-0.40 0.20,-0.40 C 0.31,-0.38 0.42,-0.32 0.52,-0.24 C 0.60,-0.13 0.67,0.01 0.70,0.17 C 0.70,0.35 0.65,0.54 0.56,0.73 C 0.41,0.90 0.21,1.05 -0.03,1.16 C -0.31,1.22 -0.62,1.21 -0.95,1.12 C -1.27,0.95 -1.57,0.70 -1.83,0.36 C -2.01,-0.06 -2.11,-0.56 -2.09,-1.10 C -1.94,-1.66 -1.64,-2.22 -1.19,-2.74 C -0.60,-3.18 0.14,-3.50 1.00,-3.65 C 1.93,-3.61 2.91,-3.34 3.88,-2.82" fill="none" stroke="#3a6090" stroke-width="1.4" stroke-linecap="round"/>
      <ellipse cx="0" cy="0" rx="1.1" ry="0.7" fill="#1a2540" stroke="none"/>
    </g>
    <!-- reduced satellite count for favicon legibility -->
    <circle cx="-5.5" cy="-2.5" r="2.9" fill="#3a6090"/>
    <circle cx="3"    cy="-6"   r="1.9" fill="#3a6090"/>
    <circle cx="-4"   cy="5"    r="1.7" fill="#3a6090"/>
    <circle cx="6"    cy="3"    r="1.4" fill="#7aaad0"/>
    <circle cx="-8.5" cy="2.5"  r="1.5" fill="#3a6090"/>
    <circle cx="-9"   cy="-5.5" r="1.3" fill="#7aaad0"/>
    <circle cx="10"   cy="-5"   r="1.1" fill="#7aaad0"/>
    <circle cx="11"   cy="4"    r="0.9" fill="#7aaad0"/>
    <circle cx="-4.5" cy="10.5" r="0.9" fill="#7aaad0"/>
  </g>
</svg>
